<svg width="110" height="36" viewBox="0 0 110 36" fill="none" xmlns="http://www.w3.org/2000/svg">
<path d="M13.056 9.248V11.96H8.592V26H5.232V11.96H0.768V9.248H13.056ZM20.0676 11.96V16.16H25.7076V18.824H20.0676V23.264H26.4276V26H16.7076V9.224H26.4276V11.96H20.0676ZM36.537 9.248C38.297 9.248 39.841 9.592 41.169 10.28C42.513 10.968 43.545 11.952 44.265 13.232C45.001 14.496 45.369 15.968 45.369 17.648C45.369 19.328 45.001 20.8 44.265 22.064C43.545 23.312 42.513 24.28 41.169 24.968C39.841 25.656 38.297 26 36.537 26H30.681V9.248H36.537ZM36.417 23.144C38.177 23.144 39.537 22.664 40.497 21.704C41.457 20.744 41.937 19.392 41.937 17.648C41.937 15.904 41.457 14.544 40.497 13.568C39.537 12.576 38.177 12.08 36.417 12.08H34.041V23.144H36.417Z" fill="#EC1015"/>
<path d="M59.3629 9.248V26H56.0029V9.248H59.3629ZM74.1546 22.808H67.4826L66.3786 26H62.8506L68.8746 9.224H72.7866L78.8106 26H75.2586L74.1546 22.808ZM73.2426 20.12L70.8186 13.112L68.3946 20.12H73.2426ZM90.9022 26L87.2062 19.472H85.6222V26H82.2622V9.248H88.5502C89.8462 9.248 90.9502 9.48 91.8622 9.944C92.7742 10.392 93.4542 11.008 93.9022 11.792C94.3662 12.56 94.5982 13.424 94.5982 14.384C94.5982 15.488 94.2782 16.488 93.6382 17.384C92.9982 18.264 92.0462 18.872 90.7822 19.208L94.7902 26H90.9022ZM85.6222 16.952H88.4302C89.3422 16.952 90.0222 16.736 90.4702 16.304C90.9182 15.856 91.1422 15.24 91.1422 14.456C91.1422 13.688 90.9182 13.096 90.4702 12.68C90.0222 12.248 89.3422 12.032 88.4302 12.032H85.6222V16.952ZM102.197 11.96V16.16H107.837V18.824H102.197V23.264H108.557V26H98.8373V9.224H108.557V11.96H102.197Z" fill="white"/>
<path d="M52 18L50.176 15.248L48.56 18H46.16L49.056 13.552L46.128 9.136H48.656L50.464 11.872L52.096 9.136H54.496L51.584 13.552L54.528 18H52Z" fill="#EC1015"/>
</svg>
