<svg width="598" height="277" viewBox="0 0 598 277" fill="none" xmlns="http://www.w3.org/2000/svg">
<path d="M598 0H1.5H-21V277H437L598 0Z" fill="#EC1015"/>
<path d="M178.208 182.888C182.304 179.475 185.568 176.637 188 174.376C190.432 172.072 192.459 169.683 194.08 167.208C195.701 164.733 196.512 162.301 196.512 159.912C196.512 157.736 196 156.029 194.976 154.792C193.952 153.555 192.373 152.936 190.24 152.936C188.107 152.936 186.464 153.661 185.312 155.112C184.16 156.52 183.563 158.461 183.52 160.936H174.816C174.987 155.816 176.501 151.933 179.36 149.288C182.261 146.643 185.931 145.32 190.368 145.32C195.232 145.32 198.965 146.621 201.568 149.224C204.171 151.784 205.472 155.176 205.472 159.4C205.472 162.728 204.576 165.907 202.784 168.936C200.992 171.965 198.944 174.611 196.64 176.872C194.336 179.091 191.328 181.779 187.616 184.936H206.496V192.36H174.88V185.704L178.208 182.888ZM215.342 169.064C215.342 161.683 216.665 155.901 219.31 151.72C221.998 147.539 226.435 145.448 232.622 145.448C238.809 145.448 243.225 147.539 245.87 151.72C248.558 155.901 249.902 161.683 249.902 169.064C249.902 176.488 248.558 182.312 245.87 186.536C243.225 190.76 238.809 192.872 232.622 192.872C226.435 192.872 221.998 190.76 219.31 186.536C216.665 182.312 215.342 176.488 215.342 169.064ZM241.07 169.064C241.07 165.907 240.857 163.261 240.43 161.128C240.046 158.952 239.235 157.181 237.998 155.816C236.803 154.451 235.011 153.768 232.622 153.768C230.233 153.768 228.419 154.451 227.182 155.816C225.987 157.181 225.177 158.952 224.75 161.128C224.366 163.261 224.174 165.907 224.174 169.064C224.174 172.307 224.366 175.037 224.75 177.256C225.134 179.432 225.945 181.203 227.182 182.568C228.419 183.891 230.233 184.552 232.622 184.552C235.011 184.552 236.825 183.891 238.062 182.568C239.299 181.203 240.11 179.432 240.494 177.256C240.878 175.037 241.07 172.307 241.07 169.064ZM258.829 154.6V146.344H274.253V193H265.037V154.6H258.829ZM294.112 168.296C289.846 166.077 287.712 162.643 287.712 157.992C287.712 155.688 288.288 153.597 289.44 151.72C290.635 149.8 292.406 148.285 294.752 147.176C297.142 146.024 300.043 145.448 303.456 145.448C306.87 145.448 309.75 146.024 312.097 147.176C314.486 148.285 316.257 149.8 317.409 151.72C318.603 153.597 319.201 155.688 319.201 157.992C319.201 160.339 318.625 162.408 317.472 164.2C316.32 165.949 314.784 167.315 312.865 168.296C315.211 169.32 317.046 170.813 318.368 172.776C319.691 174.739 320.353 177.064 320.353 179.752C320.353 182.653 319.606 185.192 318.112 187.368C316.662 189.501 314.657 191.144 312.097 192.296C309.537 193.448 306.656 194.024 303.456 194.024C300.256 194.024 297.376 193.448 294.816 192.296C292.299 191.144 290.294 189.501 288.8 187.368C287.35 185.192 286.624 182.653 286.624 179.752C286.624 177.064 287.286 174.739 288.608 172.776C289.931 170.771 291.766 169.277 294.112 168.296ZM310.497 159.272C310.497 157.181 309.856 155.56 308.576 154.408C307.339 153.256 305.632 152.68 303.456 152.68C301.323 152.68 299.616 153.256 298.336 154.408C297.099 155.56 296.48 157.203 296.48 159.336C296.48 161.256 297.12 162.792 298.4 163.944C299.723 165.096 301.408 165.672 303.456 165.672C305.504 165.672 307.19 165.096 308.512 163.944C309.835 162.749 310.497 161.192 310.497 159.272ZM303.456 172.2C301.024 172.2 299.04 172.819 297.504 174.056C296.011 175.293 295.264 177.064 295.264 179.368C295.264 181.501 295.99 183.251 297.44 184.616C298.934 185.939 300.939 186.6 303.456 186.6C305.974 186.6 307.958 185.917 309.409 184.552C310.859 183.187 311.584 181.459 311.584 179.368C311.584 177.107 310.838 175.357 309.344 174.12C307.851 172.84 305.888 172.2 303.456 172.2Z" fill="white"/>
<path d="M133.816 76.328V83.56H121.912V121H112.952V83.56H101.048V76.328H133.816ZM152.514 83.56V94.76H167.554V101.864H152.514V113.704H169.474V121H143.554V76.264H169.474V83.56H152.514ZM196.432 76.328C201.125 76.328 205.243 77.2453 208.784 79.08C212.368 80.9147 215.12 83.5387 217.04 86.952C219.003 90.3227 219.984 94.248 219.984 98.728C219.984 103.208 219.003 107.133 217.04 110.504C215.12 113.832 212.368 116.413 208.784 118.248C205.243 120.083 201.125 121 196.432 121H180.816V76.328H196.432ZM196.112 113.384C200.805 113.384 204.432 112.104 206.992 109.544C209.552 106.984 210.832 103.379 210.832 98.728C210.832 94.0773 209.552 90.4507 206.992 87.848C204.432 85.2027 200.805 83.88 196.112 83.88H189.776V113.384H196.112Z" fill="white"/>
<path d="M262.376 76.328V121H253.416V76.328H262.376ZM301.821 112.488H284.029L281.085 121H271.677L287.741 76.264H298.173L314.237 121H304.765L301.821 112.488ZM299.389 105.32L292.925 86.632L286.461 105.32H299.389ZM346.481 121L336.625 103.592H332.401V121H323.441V76.328H340.209C343.665 76.328 346.609 76.9467 349.041 78.184C351.473 79.3787 353.286 81.0213 354.481 83.112C355.718 85.16 356.337 87.464 356.337 90.024C356.337 92.968 355.484 95.6347 353.777 98.024C352.07 100.371 349.532 101.992 346.161 102.888L356.849 121H346.481ZM332.401 96.872H339.889C342.321 96.872 344.134 96.296 345.329 95.144C346.524 93.9493 347.121 92.3067 347.121 90.216C347.121 88.168 346.524 86.5893 345.329 85.48C344.134 84.328 342.321 83.752 339.889 83.752H332.401V96.872ZM376.601 83.56V94.76H391.641V101.864H376.601V113.704H393.561V121H367.641V76.264H393.561V83.56H376.601Z" fill="black"/>
<path d="M239.5 94L235.396 87.808L231.76 94H226.36L232.876 83.992L226.288 74.056H231.976L236.044 80.212L239.716 74.056H245.116L238.564 83.992L245.188 94H239.5Z" fill="white"/>
</svg>
