<svg width="421" height="427" viewBox="0 0 421 427" fill="none" xmlns="http://www.w3.org/2000/svg">
<path d="M418.867 376.795L418.836 376.797L418.732 375.524C418.767 375.95 418.814 376.376 418.867 376.795Z" fill="#EB0028"/>
<path d="M284.059 322.801C300.128 303.8 297.805 275.341 278.868 259.202C259.939 243.07 231.553 245.374 215.477 264.363L100.054 400.699C88.0311 414.9 67.1794 417.134 52.4664 406.177C35.9244 393.859 33.8104 370.214 47.1428 354.472L120.91 267.339C120.951 267.292 120.945 267.217 120.897 267.176L113.526 260.894C113.478 260.853 113.403 260.86 113.363 260.907L39.0322 348.698C38.5729 349.241 38.1333 349.794 37.7063 350.347C23.1058 369.298 25.8149 396.621 44.2102 412.298C62.8422 428.177 90.6127 426.201 106.815 408.066C107.08 407.754 107.351 407.454 107.609 407.143L223.031 270.808C235.571 255.996 257.698 254.195 272.455 266.778C287.225 279.366 289.031 301.546 276.498 316.364L230.21 371.039C230.21 371.039 230.194 371.078 230.189 371.097C230.178 371.111 230.16 371.125 230.143 371.139C228.391 373.207 228.664 376.323 230.747 378.099C232.83 379.874 235.939 379.64 237.69 377.571C237.713 377.544 237.723 377.518 237.746 377.491C237.753 377.49 237.765 377.489 237.77 377.476L284.059 322.801Z" fill="#EB0028"/>
<path d="M221.192 28.4538L332.362 123.199C351.671 92.5804 346.067 51.5827 317.743 27.4378C289.413 3.29337 248.183 4.37695 221.192 28.4538Z" fill="#EB0028"/>
<path d="M207.787 44.2957C188.478 74.9139 194.082 115.912 222.406 140.056C250.736 164.201 291.966 163.117 318.956 139.041L207.787 44.2957Z" fill="#EB0028"/>
<path d="M223.921 159.887C204.681 146.122 191.173 132.964 181.913 110.904C181.913 110.904 130.651 201.351 115.268 217.574C99.8919 233.798 101.847 240.414 113.544 248.731C125.235 257.049 136.043 267.579 136.043 267.579C136.043 267.579 147.196 282.356 164.476 254.567C181.755 226.779 256.017 174.392 256.017 174.392C256.017 174.392 243.168 173.657 223.922 159.893L223.921 159.887ZM200.901 175.532L183.148 196.502C179.795 200.462 173.868 200.945 169.919 197.579C165.969 194.213 165.485 188.266 168.838 184.306L186.591 163.336C189.944 159.376 195.871 158.893 199.821 162.259C203.77 165.625 204.254 171.572 200.901 175.532Z" fill="#EB0028"/>
</svg>
