<svg width="266" height="213" viewBox="0 0 266 213" fill="none" xmlns="http://www.w3.org/2000/svg">
<path fill-rule="evenodd" clip-rule="evenodd" d="M133.602 14.9366C132.782 15.5111 131.923 16.0979 131.076 16.7069C125.349 20.8903 119.629 25.076 113.916 29.2643C110.857 31.5006 107.781 33.7295 104.718 35.9707C99.5888 39.7184 94.4641 43.4768 89.3434 47.2459C85.2923 50.2243 81.2657 53.2447 77.2122 56.2231C73.6807 58.8243 70.1123 61.3861 66.571 63.9774C62.6578 66.8375 58.7569 69.7149 54.8437 72.5701C51.1497 75.2822 47.4557 77.9476 43.7741 80.6696C38.7478 84.4025 33.6427 88.0664 28.7518 91.9694C24.7182 95.0866 21.2023 98.823 18.3347 103.04C16.0294 106.407 14.3561 110.167 13.397 114.135C13.0522 115.637 12.9193 117.193 12.6582 118.714C12.4058 120.578 12.3308 122.462 12.4341 124.34C12.4186 130.004 14.1253 135.538 17.3274 140.206C20.2401 144.493 24.7049 147.476 29.7762 148.523C31.0296 148.784 32.3086 148.901 33.5885 148.873C43.0895 148.901 52.5889 148.908 62.0865 148.893H64.1058C64.1304 149.324 64.1551 149.711 64.1822 150.249C63.6034 150.249 63.1133 150.249 62.6183 150.249C62.1636 150.242 61.712 150.326 61.2904 150.497C60.8688 150.668 60.4859 150.922 60.1642 151.244C59.8426 151.566 59.5889 151.949 59.4183 152.371C59.2476 152.793 59.1634 153.245 59.1707 153.701C59.2495 158.289 59.1978 162.892 59.1978 167.486C59.1978 167.843 59.2519 168.193 59.2888 168.682H65.9208C66.9773 168.682 68.0388 168.682 69.0904 168.682C70.1836 168.753 71.2811 168.711 72.3656 168.556C72.4075 168.129 72.4543 167.816 72.4543 167.501C72.4543 162.952 72.4543 158.407 72.4543 153.863C72.5166 153.101 72.311 152.341 71.873 151.714C71.4351 151.088 70.7923 150.634 70.0556 150.431C69.7068 150.326 69.3461 150.265 68.982 150.249C68.5683 150.212 68.1595 150.232 67.7507 150.212C67.6499 150.194 67.5537 150.156 67.4675 150.101C67.3934 149.996 67.336 149.881 67.2975 149.758C67.2848 149.505 67.2848 149.252 67.2975 148.999C67.5084 148.946 67.7234 148.911 67.9402 148.895C72.2548 148.895 76.5678 148.895 80.8791 148.895H83.1201V150.106C82.6423 150.389 82.0809 150.219 81.5515 150.249C80.865 150.262 80.1978 150.479 79.6335 150.87C79.0693 151.262 78.6329 151.812 78.3795 152.451C78.2449 152.932 78.185 153.431 78.2021 153.93C78.1824 157.382 78.1899 160.834 78.1899 164.268C78.1899 173.554 78.2023 182.829 78.1899 192.112C78.1342 192.66 78.2074 193.212 78.4037 193.726C78.6 194.24 78.9139 194.701 79.3203 195.071C79.9961 195.625 80.8357 195.941 81.709 195.968C82.1572 196.005 82.6079 196.013 83.1227 196.03V197.226C82.6597 197.263 82.2631 197.32 81.8641 197.32C78.0691 197.302 74.2718 197.32 70.4768 197.32C69.7208 197.32 68.9523 197.295 68.1914 197.28C67.4304 197.265 67.332 197.095 67.3838 196.047C67.8196 196.025 68.2628 196.008 68.7086 195.986C69.2145 196.026 69.7232 195.956 70.1992 195.78C70.6752 195.603 71.1072 195.325 71.465 194.965C71.8227 194.604 72.0976 194.17 72.2706 193.692C72.4436 193.215 72.5105 192.705 72.4666 192.199C72.4765 185.678 72.4765 179.155 72.4666 172.629C72.4666 172.444 72.4666 172.264 72.4666 172.079C72.4297 171.436 72.2894 171.29 71.6564 171.226C71.5185 171.226 71.3879 171.226 71.2426 171.226C67.6209 171.226 63.9967 171.226 60.37 171.226C59.9801 171.252 59.5925 171.306 59.2101 171.386V192.127C59.1493 192.643 59.2054 193.165 59.3742 193.656C59.543 194.147 59.8202 194.593 60.1851 194.962C60.5501 195.33 60.9933 195.612 61.482 195.785C61.9707 195.959 62.4921 196.02 63.0075 195.964C63.3597 195.983 63.7218 196.015 64.0813 196.025C64.1331 196.173 64.1726 196.325 64.1994 196.479C64.2142 196.708 64.1994 196.935 64.1994 197.236H48.49C48.4129 197.106 48.3533 196.967 48.3128 196.822C48.3004 196.597 48.3004 196.373 48.3128 196.148C48.4524 196.092 48.5956 196.044 48.7413 196.005C49.5587 195.965 50.3718 195.865 51.1744 195.705C51.8185 195.519 52.3874 195.134 52.7997 194.604C53.2119 194.075 53.4465 193.429 53.4696 192.758C53.4946 192.437 53.4988 192.114 53.4819 191.792V155.399C53.4915 155.079 53.4849 154.758 53.4622 154.438C53.409 153.607 53.0471 152.826 52.4478 152.249C51.8485 151.672 51.0552 151.34 50.2238 151.319C49.9086 151.307 49.5885 151.319 49.261 151.319C41.8729 151.319 34.4849 151.319 27.0969 151.319C23.7588 151.324 20.4437 150.767 17.2906 149.669C13.3196 148.34 9.75741 146.009 6.94737 142.901C4.12756 139.748 2.13097 135.944 1.13551 131.831C0.608302 129.935 0.316263 127.982 0.266117 126.014C0.266117 125.016 0.049442 124.012 0.0913074 123.016C0.234527 118.715 1.26141 114.489 3.10802 110.602C4.47505 107.757 6.1738 105.085 8.16878 102.641C10.156 100.189 12.3146 97.882 14.6283 95.7368C18.2534 92.4403 22.11 89.4298 25.942 86.3676C29.0178 83.9167 32.042 81.3994 35.1129 78.9437C37.5017 77.0254 39.9299 75.1663 42.3212 73.2382C44.5671 71.4383 46.7712 69.5743 49.0122 67.7597C51.3542 65.8661 53.7282 63.9972 56.08 62.111C58.2964 60.3382 60.4956 58.5556 62.7046 56.7779C65.6221 54.4208 68.5444 52.0702 71.4717 49.7263C73.6413 47.9732 75.8257 46.235 78.0003 44.4992C80.6107 42.4108 83.2236 40.3373 85.8218 38.2415C87.9618 36.5156 90.0747 34.7749 92.2073 33.0638C94.0962 31.5351 95.9875 30.0212 97.8715 28.5073C100.016 26.7978 102.158 25.0859 104.299 23.3715C106.331 21.7392 108.355 20.0947 110.384 18.4526C112.591 16.6708 114.802 14.8931 117.016 13.1195C119.661 11.0065 122.316 8.91071 124.953 6.79276C127.483 4.75124 130.005 2.70398 132.519 0.650954C133.57 -0.214472 133.585 -0.209544 134.573 0.621364C137.254 2.89711 139.991 5.13834 142.663 7.4067C145.335 9.67505 147.952 11.9385 150.61 14.1797C153.166 16.3396 155.742 18.4526 158.3 20.5903C160.3 22.2669 162.265 23.9731 164.27 25.6546C166.275 27.3361 168.348 29.0423 170.372 30.7535C171.917 32.0578 173.426 33.3867 174.953 34.6984C176.803 36.269 178.659 37.8223 180.521 39.3831C182.028 40.6438 183.535 41.9054 185.043 43.1678C187.116 44.8937 189.192 46.6196 191.253 48.3628C193.246 50.0542 195.228 51.7505 197.223 53.4321C199.218 55.1136 201.296 56.8321 203.328 58.5433C205.36 60.2544 207.438 62.0444 209.499 63.7851C211.945 65.8636 214.395 67.9175 216.846 69.9787C218.45 71.3397 220.058 72.695 221.67 74.0445C224.265 76.2208 226.86 78.3955 229.454 80.5685C230.895 81.7791 232.323 82.9996 233.752 84.2126C235.815 85.9533 237.938 87.6152 239.933 89.4348C242.657 91.8169 245.253 94.3419 247.71 96.9993C249.658 99.201 251.532 101.437 253.31 103.775C255 106.05 256.532 108.439 257.896 110.925C259.802 114.309 261.379 117.869 262.602 121.557C263.582 124.505 264.337 127.523 264.86 130.586C265.4 133.371 265.7 136.198 265.757 139.035C265.757 139.898 265.929 140.761 265.936 141.627C265.976 144.876 265.752 148.119 265.488 151.358C265.22 154.82 264.653 158.252 263.794 161.615C262.344 167.247 260.074 172.635 257.056 177.605C254.712 181.488 251.942 185.097 248.799 188.365C244.976 192.316 240.692 195.793 236.04 198.72C231.286 201.73 226.237 204.247 220.973 206.23C217.005 207.737 212.933 208.957 208.79 209.879C205.725 210.588 202.62 211.118 199.493 211.467C196.762 211.746 194.024 211.891 191.288 212.079C188.685 212.246 186.072 212.209 183.462 212.209C156.943 212.229 130.423 212.365 103.917 212.165C85.7946 212.032 67.6816 212.143 49.5662 212.032C49.1599 212.032 48.7585 211.992 48.3226 211.96V205.345H49.8717C97.3601 205.362 144.85 205.367 192.342 205.362C195.811 205.322 199.271 204.992 202.685 204.376C206.864 203.665 210.951 202.494 214.873 200.885C218.138 199.558 221.28 197.946 224.263 196.067C226.902 194.425 229.422 192.597 231.804 190.598C233.582 189.092 235.173 187.371 236.832 185.721C238.873 183.686 240.712 181.456 242.322 179.064C243.585 177.213 244.814 175.331 245.907 173.393C247.859 169.975 249.439 166.357 250.619 162.601C251.624 159.477 252.366 156.274 252.835 153.025C253.167 150.444 253.557 147.87 253.657 145.261C253.724 143.752 253.835 142.245 253.923 140.739C253.987 139.553 254.15 138.365 254.103 137.186C254.027 135.039 253.783 132.916 253.677 130.775C253.537 128.586 253.241 126.409 252.793 124.261C251.245 116.285 247.847 108.785 242.873 102.364C241.514 100.589 240.017 98.9125 238.524 97.2285C235.229 93.6625 231.61 90.4096 227.716 87.5116C223.803 84.4962 219.88 81.498 215.971 78.4776C211.635 75.1096 207.322 71.7194 202.981 68.3687C199.361 65.5801 195.694 62.8482 192.071 60.0473C187.729 56.6965 183.422 53.3014 179.08 49.9383C176.33 47.8154 173.539 45.7468 170.786 43.614C167.233 40.8797 163.709 38.1256 160.157 35.3814C158.131 33.8182 156.082 32.2673 154.057 30.6968C150.117 27.6616 146.177 24.6018 142.236 21.5617C139.365 19.3353 136.531 17.1729 133.602 14.9366Z" fill="#C76F45"/>
<path fill-rule="evenodd" clip-rule="evenodd" d="M106.732 139.092V140.125C106.656 140.172 106.589 140.28 106.516 140.28C102.437 140.293 98.3575 140.301 94.276 140.302C94.1972 140.302 94.116 140.233 93.9731 140.167V139.114C94.0809 139.051 94.1981 139.006 94.3204 138.981C94.8252 138.964 95.33 138.981 95.8349 138.964C96.6429 138.939 97.4106 138.605 97.9804 138.031C98.5502 137.457 98.8787 136.686 98.8985 135.877C98.9133 135.647 98.8985 135.413 98.8985 135.184C98.8985 122.504 98.8985 109.829 98.8985 97.157C98.9508 96.6335 98.8899 96.1049 98.7199 95.6071C98.5499 95.1093 98.2748 94.6541 97.9134 94.2722C97.6617 94.0051 97.3589 93.7914 97.0229 93.644C96.687 93.4965 96.3248 93.4184 95.958 93.4142C95.591 93.4018 95.2192 93.4142 94.8597 93.3945C93.9362 93.3624 93.9263 93.3427 94.0322 92.0458C98.1473 92.0014 102.28 92.068 106.535 92.0458C107.843 97.3863 109.055 102.7 110.276 108.015C111.497 113.331 112.753 118.64 114.216 123.933C116.413 113.821 118.617 103.67 120.829 93.4808C120.063 93.4339 119.39 93.3969 118.578 93.3501C118.541 92.9531 118.501 92.5685 118.457 92.0507H133.959V93.1923C133.83 93.2795 133.687 93.3452 133.536 93.387C133.081 93.4297 132.623 93.4355 132.167 93.4043C131.336 93.4165 130.54 93.7366 129.933 94.3028C129.325 94.869 128.948 95.6409 128.876 96.469C128.848 96.8349 128.842 97.2021 128.857 97.5687C128.857 110.022 128.857 122.47 128.857 134.913C128.852 135.504 128.93 136.093 129.088 136.663C129.265 137.332 129.66 137.922 130.21 138.34C130.76 138.758 131.434 138.98 132.125 138.971C132.711 138.988 133.307 138.971 133.959 138.971V140.28H118.198V138.971C118.836 138.971 119.43 138.983 120.011 138.971C120.423 138.972 120.832 138.891 121.213 138.732C121.593 138.572 121.938 138.339 122.228 138.044C122.517 137.75 122.744 137.401 122.897 137.017C123.05 136.633 123.124 136.223 123.116 135.81C123.116 135.071 123.116 134.331 123.116 133.608C123.116 123.728 123.116 113.853 123.116 103.984C123.116 102.283 123.141 100.582 123.146 98.8854C123.182 98.2358 123.113 97.5848 122.942 96.9572C122.621 98.3108 122.289 99.6694 121.991 101.03C121.329 104.004 120.693 106.997 120.043 109.976C119.222 113.709 118.401 117.444 117.58 121.182C116.397 126.555 115.212 131.933 114.027 137.317C113.817 138.288 113.623 139.267 113.409 140.275H112.01C108.641 125.709 105.275 111.162 101.913 96.6342C101.844 96.6342 101.775 96.6343 101.706 96.654C101.676 96.9696 101.632 97.2901 101.632 97.6106C101.632 110.193 101.632 122.778 101.632 135.364C101.588 135.845 101.65 136.331 101.813 136.786C101.976 137.241 102.236 137.655 102.575 137.999C102.915 138.343 103.325 138.609 103.778 138.777C104.23 138.946 104.714 139.014 105.196 138.976C105.609 138.976 106.021 138.976 106.427 138.998C106.531 139.021 106.633 139.052 106.732 139.092Z" fill="#C76F45"/>
<path fill-rule="evenodd" clip-rule="evenodd" d="M202.998 140.256V138.971C203.518 138.971 204.01 138.954 204.503 138.971C204.972 138.995 205.442 138.922 205.883 138.758C206.323 138.593 206.726 138.34 207.065 138.014C207.405 137.688 207.674 137.296 207.856 136.861C208.038 136.427 208.13 135.96 208.125 135.49C208.137 135.31 208.125 135.122 208.125 134.937V97.4602C208.171 96.8873 208.096 96.3111 207.906 95.769C207.715 95.227 207.412 94.7313 207.017 94.3141C206.754 94.0262 206.434 93.7973 206.076 93.6426C205.719 93.4879 205.333 93.4109 204.943 93.4166C204.347 93.4166 203.756 93.4166 203.022 93.4166C202.998 92.9531 202.978 92.5117 202.954 92.0432C203.875 92.0432 204.677 92.0605 205.478 92.0432C208.078 91.9471 210.681 92.0852 213.282 92.0432C215.883 92.0013 218.513 92.0432 221.128 92.0802C223.528 92.1573 225.816 93.1176 227.553 94.7776C230.332 97.4017 232.303 100.768 233.232 104.477C234.035 107.098 234.545 109.799 234.752 112.532C235.127 117.426 234.691 122.348 233.464 127.099C232.604 130.676 230.892 133.99 228.474 136.759C227.586 137.813 226.488 138.671 225.252 139.279C224.016 139.887 222.667 140.232 221.291 140.293C215.326 140.364 209.359 140.312 203.399 140.312C203.313 140.32 203.22 140.283 202.998 140.256ZM213.678 115.96C213.678 122.158 213.683 128.36 213.693 134.565C213.688 135.249 213.771 135.931 213.94 136.594C214.057 137.187 214.355 137.729 214.792 138.147C215.228 138.564 215.783 138.836 216.38 138.927C217.631 139.129 218.914 139.002 220.102 138.557C221.289 138.113 222.34 137.367 223.152 136.392C224.703 134.579 225.881 132.477 226.62 130.208C227.92 126.166 228.64 121.96 228.757 117.715C228.834 116.305 228.612 114.882 228.602 113.467C228.553 110.586 228.158 107.722 227.428 104.936C226.798 101.881 225.497 99.0058 223.618 96.5183C222.842 95.4303 221.789 94.57 220.568 94.0267C219.348 93.4835 218.005 93.2771 216.678 93.4289C216.15 93.4512 215.639 93.6192 215.2 93.9142C214.762 94.2092 214.413 94.6198 214.193 95.1006C213.844 95.848 213.669 96.6648 213.681 97.4897C213.696 103.646 213.697 109.802 213.686 115.96H213.678Z" fill="#C76F45"/>
<path fill-rule="evenodd" clip-rule="evenodd" d="M149.331 90.9312C151.015 90.8741 152.688 91.2254 154.207 91.9552C155.725 92.6851 157.045 93.7718 158.054 95.1227C160.55 98.3554 162.239 102.138 162.98 106.156C163.428 108.533 163.737 110.933 163.905 113.346C164.07 115.673 164.023 118.01 163.763 120.329C163.489 124.438 162.473 128.463 160.766 132.21C159.593 135.02 157.64 137.434 155.138 139.166C153.284 140.368 151.094 140.948 148.888 140.821C146.682 140.694 144.574 139.866 142.869 138.458C140.62 136.559 138.885 134.123 137.826 131.374C136.641 128.509 135.843 125.498 135.454 122.422C135.065 119.842 134.9 117.234 134.962 114.626C135.002 109.084 136.24 103.616 138.592 98.5992C139.616 96.4377 141.135 94.5481 143.025 93.0837C144.778 91.5904 147.032 90.8208 149.331 90.9312ZM141.451 115.816H141.559C141.559 117.2 141.451 118.593 141.586 119.949C141.787 122.63 142.123 125.3 142.594 127.947C143.062 130.507 143.866 132.995 144.985 135.344C145.488 136.379 146.205 137.295 147.088 138.032C147.67 138.593 148.433 138.927 149.24 138.972C150.047 139.018 150.843 138.771 151.484 138.278C152.097 137.804 152.653 137.26 153.141 136.658C154.654 134.418 155.67 131.879 156.119 129.212C156.522 127.309 156.774 125.353 157 123.408C157.227 121.463 157.397 119.507 157.473 117.55C157.552 114.349 157.396 111.147 157.008 107.968C156.799 105.699 156.404 103.45 155.828 101.245C155.319 98.723 154.223 96.3574 152.627 94.3411C152.321 93.894 151.924 93.518 151.46 93.2385C150.997 92.9589 150.479 92.7825 149.942 92.7213C149.405 92.66 148.86 92.7152 148.346 92.8833C147.832 93.0513 147.36 93.3282 146.962 93.6951C146.575 94.0163 146.23 94.3868 145.938 94.7972C145.097 95.9394 144.438 97.2054 143.985 98.5499C142.822 101.867 142.096 105.322 141.825 108.827C141.591 111.147 141.559 113.489 141.439 115.816H141.451Z" fill="#C76F45"/>
<path fill-rule="evenodd" clip-rule="evenodd" d="M112.869 172.681C112.856 177.25 112.185 181.793 110.877 186.17C110.049 188.991 108.653 191.612 106.776 193.873C105.113 196.019 102.694 197.449 100.013 197.87C97.3321 198.29 94.5921 197.67 92.3526 196.136C90.3139 194.719 88.6811 192.792 87.6168 190.547C86.1339 187.658 85.1047 184.557 84.5656 181.355C84.194 179.472 83.9896 177.561 83.9549 175.642C83.9549 174.599 83.7455 173.551 83.7824 172.508C83.7828 167.199 84.8255 161.943 86.851 157.037C87.8958 154.541 89.4961 152.317 91.53 150.535C93.3768 148.97 95.7064 148.091 98.1256 148.046C100.545 148.001 102.905 148.793 104.809 150.288C107.032 152.134 108.76 154.507 109.835 157.192C110.99 159.922 111.808 162.782 112.271 165.711C112.47 166.877 112.517 168.077 112.618 169.251C112.724 170.533 112.805 171.82 112.869 172.681ZM90.2346 173.199C90.3381 174.791 90.4809 176.525 90.5548 178.255C90.7183 181.767 91.2843 185.248 92.2417 188.631C92.7717 190.719 93.7128 192.681 95.0098 194.4C95.5027 195.089 96.1974 195.608 96.9978 195.885C97.7982 196.161 98.6646 196.182 99.4771 195.944C100.446 195.624 101.276 194.983 101.831 194.127C102.601 192.887 103.267 191.586 103.821 190.236C105.339 185.734 106.157 181.026 106.249 176.276C106.442 172.48 106.296 168.674 105.811 164.904C105.504 162.048 104.927 159.227 104.087 156.479C103.57 154.521 102.572 152.723 101.184 151.25C100.835 150.835 100.401 150.501 99.9115 150.271C99.4217 150.04 98.8878 149.919 98.3467 149.916C97.8055 149.912 97.2701 150.026 96.7773 150.25C96.2845 150.474 95.8461 150.803 95.4924 151.213C94.2815 152.476 93.3745 153.999 92.8402 155.666C91.6832 159.025 90.9453 162.515 90.6435 166.056C90.3947 168.376 90.3677 170.716 90.2372 173.199H90.2346Z" fill="#C76F45"/>
<path fill-rule="evenodd" clip-rule="evenodd" d="M177.288 138.969V140.162C177.187 140.232 177.076 140.282 176.958 140.312H164.745C164.706 139.905 164.669 139.526 164.627 139.131C164.767 139.059 164.918 139.009 165.073 138.981C165.521 138.964 165.986 138.981 166.444 138.969C167.273 138.944 168.062 138.606 168.652 138.023C169.242 137.44 169.589 136.654 169.624 135.825C169.643 135.46 169.639 135.085 169.639 134.718C169.639 122.319 169.639 109.923 169.639 97.5292C169.673 96.9345 169.625 96.3379 169.496 95.7564C169.308 95.0635 168.892 94.4542 168.316 94.0273C167.739 93.6004 167.036 93.3809 166.319 93.4042C165.826 93.4264 165.321 93.4042 164.74 93.4042V92.0408H175.487C176.94 95.0463 178.366 97.9582 179.77 100.887C181.174 103.816 182.597 106.731 183.998 109.665C185.38 112.557 186.707 115.454 188.121 118.331C189.534 121.209 190.963 124.143 192.381 127.038C192.475 127.018 192.561 126.993 192.655 126.973C192.677 126.687 192.714 126.406 192.714 126.125C192.714 116.477 192.718 106.829 192.726 97.1815C192.766 96.1689 192.406 95.1813 191.724 94.4324C191.444 94.0981 191.092 93.8318 190.694 93.6537C190.297 93.4756 189.864 93.3903 189.428 93.4042C188.889 93.424 188.338 93.4042 187.67 93.4042C187.636 92.9234 187.606 92.5536 187.567 92.0457C189.805 92.0457 191.906 92.026 194.009 92.0457C196.112 92.0654 198.176 91.9051 200.341 92.1048V93.1577C199.878 93.5719 199.356 93.3845 198.863 93.4042C198.44 93.3593 198.012 93.4022 197.606 93.5302C197.2 93.6582 196.825 93.8687 196.504 94.1484C196.183 94.4282 195.923 94.7712 195.74 95.156C195.558 95.5409 195.456 95.9593 195.442 96.3852C195.332 97.0603 195.272 97.7427 195.263 98.4267C195.243 111.831 195.239 125.239 195.25 138.65V140.201C194.452 140.346 193.639 140.394 192.829 140.344C191.482 137.516 190.16 134.71 188.825 131.912C187.49 129.114 186.116 126.31 184.781 123.499C183.447 120.689 182.087 117.789 180.73 114.951C179.373 112.113 178.048 109.344 176.696 106.538C175.344 103.733 173.988 100.966 172.434 98.2368C172.406 98.5746 172.352 98.9247 172.352 99.2625C172.352 111.3 172.352 123.332 172.352 135.359C172.257 136.097 172.424 136.845 172.824 137.472C173.225 138.099 173.833 138.565 174.542 138.789C174.887 138.899 175.248 138.957 175.611 138.961C176.138 138.991 176.692 138.969 177.288 138.969Z" fill="#C76F45"/>
<path fill-rule="evenodd" clip-rule="evenodd" d="M177.192 197.275C177.165 196.804 177.145 196.466 177.13 196.116C177.28 196.063 177.435 196.026 177.593 196.005C178.27 195.931 178.957 195.931 179.625 195.811C180.379 195.672 181.06 195.271 181.546 194.678C182.033 194.085 182.293 193.338 182.282 192.571C182.298 192.297 182.298 192.022 182.282 191.747C182.282 179.243 182.282 166.751 182.282 154.27C182.332 153.58 182.216 152.887 181.945 152.251C181.679 151.663 181.252 151.163 180.713 150.809C180.174 150.456 179.545 150.263 178.901 150.254C178.359 150.229 177.81 150.254 177.177 150.254V148.959H206.975C206.997 149.324 207.034 149.677 207.044 150.022C207.155 154.793 207.261 159.556 207.364 164.433L206.076 164.544C206.022 164.352 205.984 164.156 205.961 163.957C205.911 161.395 205.353 158.868 204.318 156.524C203.668 154.927 202.614 153.529 201.258 152.466C199.903 151.404 198.294 150.714 196.59 150.466C194.731 150.231 192.853 150.17 190.983 150.283C190.173 150.324 189.409 150.677 188.853 151.268C188.297 151.859 187.99 152.642 187.998 153.454C188.015 155.426 187.998 157.399 187.998 159.386C187.998 162.732 187.998 166.093 187.998 169.443C187.998 169.882 188.037 170.334 188.069 170.901C190.1 171.015 192.137 170.932 194.152 170.654C195.083 170.5 195.945 170.065 196.623 169.408C197.302 168.751 197.763 167.902 197.947 166.975C198.085 166.211 198.167 165.439 198.193 164.663C198.23 164.036 198.193 163.398 198.193 162.715H199.526C199.575 168.982 199.526 175.243 199.548 181.589H198.361C198.295 181.484 198.245 181.371 198.213 181.251C198.119 180.018 198.127 178.786 197.954 177.553C197.825 176.52 197.343 175.563 196.591 174.844C195.838 174.126 194.861 173.689 193.825 173.608C191.955 173.472 190.089 173.418 188.118 173.324C188.064 173.803 187.99 174.148 187.983 174.5C187.983 180.467 188.003 186.439 187.983 192.411C187.935 192.86 187.984 193.314 188.126 193.743C188.268 194.172 188.5 194.565 188.807 194.897C189.114 195.228 189.488 195.49 189.905 195.664C190.321 195.838 190.77 195.921 191.221 195.907C193.41 196.167 195.627 196.005 197.755 195.431C199.829 194.819 201.645 193.543 202.927 191.799C204.4 189.697 205.421 187.312 205.926 184.794C206.081 184.141 206.118 183.433 206.241 182.772C206.319 182.412 206.415 182.057 206.532 181.707H207.734C207.768 181.98 207.788 182.254 207.793 182.528C207.635 185.312 207.46 188.098 207.3 190.882C207.192 192.753 207.12 194.62 207.024 196.503C206.993 196.76 206.945 197.014 206.882 197.265C201.902 197.324 196.955 197.297 192.032 197.297C187.109 197.297 182.201 197.334 177.192 197.275Z" fill="#C76F45"/>
<path fill-rule="evenodd" clip-rule="evenodd" d="M45.8228 92.0506C46.6035 95.0981 47.3374 98.0075 48.0934 100.927C49.8797 107.898 51.6693 114.867 53.4622 121.835C54.5187 125.935 55.5652 130.043 56.6513 134.143C56.8805 134.975 57.1992 135.78 57.6018 136.542C57.9538 137.321 58.5349 137.973 59.2673 138.411C59.9997 138.85 60.8484 139.054 61.6997 138.996C61.8246 139.012 61.9481 139.038 62.0692 139.072C62.0889 139.427 62.1111 139.812 62.1332 140.273H46.5346C46.4834 140.145 46.4446 140.012 46.4188 139.876C46.4188 139.629 46.436 139.356 46.4459 139.136C47.2341 139.012 48.0133 138.836 48.7781 138.609C49.2957 138.408 49.7418 138.058 50.0595 137.603C50.3771 137.147 50.5517 136.607 50.5611 136.052C50.6082 135.415 50.5517 134.774 50.3936 134.156C49.8001 131.577 49.1622 129.012 48.522 126.355C47.5074 126.172 46.473 126.125 45.4462 126.216C44.3872 126.177 43.3356 126.216 42.2816 126.216C41.2275 126.216 40.171 126.216 39.1145 126.216C38.0581 126.216 37.0287 126.234 35.9427 126.249C35.593 127.585 35.2432 128.808 34.9403 130.041C34.6177 131.32 34.3001 132.605 34.0366 133.907C33.8894 134.757 33.7867 135.615 33.7288 136.476C33.5613 138.254 34.8788 138.867 36.1643 138.976C36.7036 139.015 37.2504 138.976 37.7947 138.976C37.8463 139.132 37.8874 139.292 37.9178 139.454C37.9375 139.689 37.9178 139.908 37.9178 140.145C37.7626 140.219 37.642 140.322 37.5262 140.322C33.8979 140.322 30.2736 140.322 26.6534 140.322C26.2422 140.335 25.8334 140.322 25.3137 140.322C25.2719 139.908 25.2325 139.523 25.198 139.173C25.3556 139.08 25.4271 139.003 25.5084 139.003C26.7044 138.961 27.8565 138.541 28.7993 137.803C29.7421 137.065 30.4271 136.047 30.7563 134.895C31.2685 133.239 31.6625 131.542 32.0861 129.861C33.805 123.146 35.5215 116.426 37.2355 109.702C38.6475 104.128 40.0668 98.5557 41.4935 92.9851C41.7225 92.0728 41.7225 92.0605 42.6682 92.0506C43.6705 92.0383 44.6777 92.0506 45.8228 92.0506ZM47.6748 123.218C47.2192 120.407 42.6903 102.261 42.1732 101.368C42.0156 101.829 41.8581 102.189 41.7645 102.564C41.0552 105.439 40.3558 108.314 39.6391 111.194C38.7205 114.892 37.7823 118.613 36.8588 122.331C36.8247 122.629 36.8247 122.93 36.8588 123.228L47.6748 123.218Z" fill="#C76F45"/>
<path fill-rule="evenodd" clip-rule="evenodd" d="M149.627 197.416V178.228C150.105 178.186 150.54 178.144 151.063 178.103C151.279 179.044 151.479 179.927 151.698 180.795C152.253 183.198 152.995 185.554 153.914 187.842C154.847 190.238 156.274 192.412 158.101 194.22C159.741 195.858 161.959 196.784 164.275 196.799C166.102 196.916 167.908 196.356 169.349 195.225C170.789 194.094 171.764 192.472 172.086 190.667C172.592 188.581 172.482 186.393 171.77 184.368C171.058 182.343 169.774 180.568 168.075 179.259C165.656 177.367 162.998 175.805 160.17 174.614C157.575 173.466 155.174 171.921 153.055 170.033C151.614 168.67 150.594 166.922 150.117 164.995C149.231 161.656 149.573 158.109 151.08 155C151.81 153.279 152.966 151.772 154.439 150.621C155.911 149.47 157.652 148.713 159.497 148.422C161.07 148.081 162.697 148.083 164.269 148.426C165.841 148.769 167.321 149.446 168.609 150.411C169.419 151.062 170.318 151.605 171.158 152.187C172.283 151.731 172.517 150.67 173.054 149.761H174.226C174.31 149.874 174.436 149.987 174.448 150.101C174.497 150.51 174.523 150.921 174.527 151.334C174.556 154.411 174.556 157.498 174.618 160.56C174.648 162.111 174.79 163.657 174.881 165.227C174.328 165.478 173.699 165.51 173.123 165.316C172.892 164.359 172.613 163.415 172.434 162.434C171.973 160.29 171.277 158.203 170.358 156.213C169.707 154.645 168.747 153.226 167.535 152.039C166.128 150.776 164.321 150.051 162.433 149.99C161.204 149.865 159.963 150.016 158.8 150.434C157.63 150.856 156.602 151.602 155.836 152.584C155.07 153.566 154.597 154.744 154.471 155.984C154.172 157.185 154.148 158.438 154.4 159.65C154.678 160.806 155.198 161.891 155.926 162.831C157.205 164.399 158.744 165.734 160.477 166.776C163.334 168.502 166.215 170.181 169.067 171.909C171.264 173.157 173.169 174.86 174.655 176.904C175.648 178.441 176.288 180.179 176.527 181.993C176.994 184.946 176.574 187.971 175.32 190.685C174.633 192.591 173.473 194.292 171.949 195.626C170.425 196.961 168.588 197.887 166.61 198.316C164.167 198.82 161.626 198.478 159.404 197.344C158.091 196.696 156.884 195.845 155.636 195.083C155.207 194.837 154.808 194.521 154.358 194.304C154.18 194.195 153.982 194.125 153.775 194.099C153.569 194.072 153.36 194.089 153.16 194.149C152.961 194.209 152.777 194.311 152.619 194.447C152.462 194.583 152.335 194.751 152.247 194.94C151.938 195.448 151.676 195.983 151.464 196.538C151.008 197.64 151.018 197.64 149.627 197.416Z" fill="#C76F45"/>
<path fill-rule="evenodd" clip-rule="evenodd" d="M136.375 150.244V148.954H149.132C149.156 149.312 149.184 149.694 149.203 150.039C149.051 150.133 148.984 150.212 148.898 150.212C148.578 150.243 148.256 150.253 147.935 150.241C147.419 150.18 146.897 150.234 146.404 150.399C145.912 150.564 145.463 150.837 145.089 151.198C144.715 151.558 144.426 151.997 144.242 152.484C144.058 152.97 143.985 153.491 144.027 154.009C144.012 154.332 144.027 154.647 144.027 154.968C144.027 165.258 144.027 175.546 144.027 185.832C144.042 187.386 143.853 188.936 143.463 190.44C143.109 192.061 142.315 193.553 141.17 194.752C140.024 195.951 138.57 196.81 136.969 197.236C134.971 197.927 132.829 198.089 130.751 197.707C129.531 197.55 128.323 197.316 127.133 197.006C125.146 196.421 123.37 195.276 122.016 193.707C120.662 192.139 119.788 190.213 119.499 188.16C119.348 187.307 119.266 186.444 119.252 185.578C119.238 175.106 119.238 164.635 119.252 154.164C119.336 153.2 119.052 152.24 118.457 151.477C118.14 151.084 117.738 150.768 117.281 150.555C116.823 150.341 116.324 150.235 115.819 150.244H114.177C114.154 149.778 114.135 149.405 114.108 148.954H129.891C129.926 149.294 129.962 149.674 129.999 150.056C129.857 150.128 129.708 150.185 129.554 150.224C129.189 150.244 128.815 150.236 128.45 150.244C127.992 150.225 127.534 150.301 127.107 150.467C126.679 150.634 126.29 150.887 125.965 151.211C125.64 151.536 125.385 151.924 125.217 152.351C125.049 152.779 124.971 153.236 124.988 153.696C124.988 164.48 124.956 175.279 125.022 186.071C124.99 187.405 125.229 188.73 125.726 189.967C126.223 191.205 126.968 192.327 127.913 193.266C129.038 194.355 130.504 195.022 132.063 195.155C133.92 195.426 135.812 195.02 137.395 194.01C138.977 193 140.144 191.454 140.682 189.654C141.105 188.539 141.32 187.355 141.318 186.163C141.308 175.324 141.308 164.486 141.318 153.649C141.348 153.191 141.28 152.732 141.118 152.303C140.955 151.874 140.703 151.485 140.378 151.162C140.053 150.839 139.662 150.59 139.232 150.431C138.803 150.272 138.344 150.207 137.887 150.241L136.375 150.244Z" fill="#C76F45"/>
<path fill-rule="evenodd" clip-rule="evenodd" d="M90.774 122.553C91.1558 122.533 91.5128 122.506 92.0054 122.481C92.0054 128.416 91.9512 134.281 91.9266 140.066C91.833 140.164 91.8108 140.211 91.7713 140.236C91.7391 140.262 91.6997 140.279 91.6582 140.283C82.6284 140.306 73.5928 140.319 64.5515 140.322C64.3767 140.322 64.197 140.283 63.9335 140.258C63.9113 139.878 63.8891 139.518 63.8718 139.166C63.993 139.088 64.1274 139.033 64.2683 139.003C64.7757 138.969 65.278 138.983 65.7829 138.966C66.5896 138.936 67.3559 138.605 67.9303 138.037C68.5048 137.469 68.8457 136.706 68.8858 135.899C68.8982 135.652 68.8858 135.44 68.8858 135.209C68.8858 122.534 68.8858 109.857 68.8858 97.1791C68.9094 96.6808 68.8562 96.1819 68.7282 95.6998C68.5534 95.003 68.1377 94.3908 67.5547 93.9719C66.9717 93.5529 66.2593 93.3545 65.544 93.4117C65.0515 93.4117 64.5441 93.4117 63.9679 93.4117V92.1123H79.522C79.559 92.4747 79.5985 92.852 79.6379 93.2465C79.4918 93.3174 79.3369 93.3688 79.1774 93.3994C78.6282 93.3994 78.074 93.3846 77.5273 93.429C76.7679 93.492 76.0569 93.8276 75.5252 94.374C74.9934 94.9204 74.6768 95.6408 74.6337 96.4025C74.614 96.7205 74.6337 97.0485 74.6337 97.3616C74.6337 109.9 74.6337 122.438 74.6337 134.974C74.6422 135.659 74.7433 136.339 74.9341 136.996C75.0894 137.532 75.4081 138.007 75.8456 138.353C76.2831 138.699 76.8178 138.899 77.3747 138.927C79.8474 139.266 82.3588 138.688 84.4352 137.302C85.6836 136.44 86.7166 135.302 87.4543 133.976C88.7067 131.637 89.5883 129.117 90.0673 126.507C90.3357 125.265 90.5229 123.995 90.774 122.553Z" fill="#C76F45"/>
<path fill-rule="evenodd" clip-rule="evenodd" d="M33.884 194.363C35.7254 194.368 37.5241 194.919 39.0527 195.947C40.5812 196.975 41.7709 198.434 42.4712 200.139C43.1714 201.844 43.351 203.719 42.9869 205.526C42.6228 207.333 41.7314 208.992 40.4257 210.292C39.12 211.592 37.4585 212.475 35.6515 212.829C33.8444 213.184 31.973 212.994 30.2738 212.283C28.5747 211.572 27.1241 210.373 26.1058 208.837C25.0874 207.301 24.5471 205.497 24.5529 203.654C24.5355 202.424 24.7653 201.204 25.2287 200.066C25.6921 198.927 26.3797 197.894 27.2504 197.027C28.121 196.16 29.157 195.478 30.2967 195.02C31.4363 194.562 32.6563 194.339 33.884 194.363ZM33.948 195.675C32.8878 195.656 31.8345 195.849 30.8492 196.241C29.864 196.634 28.9664 197.219 28.2089 197.961C27.4513 198.704 26.8489 199.591 26.4365 200.569C26.024 201.547 25.8098 202.597 25.8064 203.659C25.8025 204.717 26.007 205.766 26.408 206.746C26.8091 207.725 27.3989 208.616 28.1438 209.367C28.8887 210.119 29.7742 210.716 30.7496 211.124C31.725 211.533 32.7712 211.746 33.8285 211.749C34.8859 211.753 35.9336 211.549 36.912 211.147C37.8903 210.746 38.7802 210.155 39.5307 209.409C40.2811 208.663 40.8773 207.777 41.2855 206.8C41.6937 205.824 41.9059 204.776 41.9097 203.718C41.9189 201.594 41.0853 199.554 39.5923 198.046C38.0992 196.538 36.069 195.685 33.948 195.675Z" fill="#C76F45"/>
<path fill-rule="evenodd" clip-rule="evenodd" d="M31.5566 204.388C31.4268 205.676 31.3636 206.97 31.3671 208.264C31.2413 208.326 31.108 208.372 30.9706 208.4C30.769 208.398 30.5679 208.379 30.3696 208.343V199.048C32.2339 199.048 34.0637 198.986 35.8713 199.07C36.383 199.101 36.8632 199.328 37.2129 199.703C37.5626 200.078 37.755 200.574 37.7503 201.087C37.8118 202.226 37.8291 203.168 36.2161 203.799C36.0117 203.88 35.817 204.009 35.6816 204.073L38.6221 208.358H37.1272C36.5608 207.534 35.8959 206.713 35.4033 205.806C35.0665 205.121 34.4792 204.591 33.7632 204.327C33.0471 204.063 32.257 204.085 31.5566 204.388ZM31.6626 203.101C32 203.121 32.3078 203.17 32.6255 203.17C33.3987 203.17 34.177 203.19 34.9527 203.153C35.2234 203.119 35.4855 203.036 35.7259 202.907C36.0187 202.777 36.2628 202.557 36.4226 202.279C36.5824 202.001 36.6498 201.679 36.615 201.361C36.593 201.063 36.4803 200.78 36.2923 200.549C36.1042 200.318 35.8498 200.15 35.5634 200.069C34.3567 199.825 33.1192 199.773 31.8965 199.916C31.7919 199.949 31.6975 200.008 31.6222 200.088C31.5468 200.168 31.4929 200.266 31.4655 200.372C31.314 201.284 31.3816 202.22 31.6626 203.101Z" fill="#C76F45"/>
</svg>
