<svg width="220" height="72" viewBox="0 0 220 72" fill="none" xmlns="http://www.w3.org/2000/svg">
<path d="M26.112 19.496V24.92H17.184V53H10.464V24.92H1.536V19.496H26.112ZM40.1351 24.92V33.32H51.4151V38.648H40.1351V47.528H52.8551V53H33.4151V19.448H52.8551V24.92H40.1351ZM73.074 19.496C76.594 19.496 79.682 20.184 82.338 21.56C85.026 22.936 87.09 24.904 88.53 27.464C90.002 29.992 90.738 32.936 90.738 36.296C90.738 39.656 90.002 42.6 88.53 45.128C87.09 47.624 85.026 49.56 82.338 50.936C79.682 52.312 76.594 53 73.074 53H61.362V19.496H73.074ZM72.834 47.288C76.354 47.288 79.074 46.328 80.994 44.408C82.914 42.488 83.874 39.784 83.874 36.296C83.874 32.808 82.914 30.088 80.994 28.136C79.074 26.152 76.354 25.16 72.834 25.16H68.082V47.288H72.834Z" fill="#EC1015"/>
<path d="M118.726 19.496V53H112.006V19.496H118.726ZM148.309 46.616H134.965L132.757 53H125.701L137.749 19.448H145.573L157.621 53H150.517L148.309 46.616ZM146.485 41.24L141.637 27.224L136.789 41.24H146.485ZM181.804 53L174.412 39.944H171.244V53H164.524V19.496H177.1C179.692 19.496 181.9 19.96 183.724 20.888C185.548 21.784 186.908 23.016 187.804 24.584C188.732 26.12 189.196 27.848 189.196 29.768C189.196 31.976 188.556 33.976 187.276 35.768C185.996 37.528 184.092 38.744 181.564 39.416L189.58 53H181.804ZM171.244 34.904H176.86C178.684 34.904 180.044 34.472 180.94 33.608C181.836 32.712 182.284 31.48 182.284 29.912C182.284 28.376 181.836 27.192 180.94 26.36C180.044 25.496 178.684 25.064 176.86 25.064H171.244V34.904ZM204.395 24.92V33.32H215.675V38.648H204.395V47.528H217.115V53H197.675V19.448H217.115V24.92H204.395Z" fill="black"/>
<path d="M103 33L100.264 28.872L97.84 33H94.24L98.584 26.328L94.192 19.704H97.984L100.696 23.808L103.144 19.704H106.744L102.376 26.328L106.792 33H103Z" fill="#EC1015"/>
</svg>
