<svg width="561" height="68" viewBox="0 0 561 68" fill="none" xmlns="http://www.w3.org/2000/svg">
<rect width="561" height="68" fill="#EB0028"/>
<path d="M36.56 13.8H41.768V53H37.568L17.408 23.712V53H12.2V13.8H16.4L36.56 43.032V13.8ZM76.5291 53L73.3371 44.208H55.6971L52.5051 53H46.9611L61.5771 13.8H67.4571L82.0731 53H76.5291ZM57.4891 39.336H71.5451L64.4891 20.016L57.4891 39.336ZM109.502 13.8V18.728H97.9098V53H92.7578V18.728H81.2218V13.8H109.502ZM140.024 49.976C137.299 52.4773 133.771 53.728 129.44 53.728C125.109 53.728 121.563 52.4773 118.8 49.976C116.075 47.4373 114.712 44.0587 114.712 39.84V13.8H119.92V39.616C119.92 42.3787 120.741 44.5813 122.384 46.224C124.027 47.8293 126.379 48.632 129.44 48.632C132.501 48.632 134.853 47.8293 136.496 46.224C138.139 44.5813 138.96 42.3787 138.96 39.616V13.8H144.112V39.84C144.112 44.0587 142.749 47.4373 140.024 49.976ZM175.875 53L167.083 37.992H157.843V53H152.635V13.8H168.315C171.675 13.8 174.55 14.9947 176.939 17.384C179.329 19.736 180.523 22.592 180.523 25.952C180.523 28.4907 179.758 30.8053 178.227 32.896C176.734 34.9867 174.793 36.4613 172.403 37.32L181.643 53H175.875ZM157.843 18.672V33.288H168.315C170.257 33.288 171.899 32.5787 173.243 31.16C174.625 29.704 175.315 27.968 175.315 25.952C175.315 23.936 174.625 22.2187 173.243 20.8C171.899 19.3813 170.257 18.672 168.315 18.672H157.843ZM192.638 48.072H210.838V53H187.43V13.8H210.558V18.728H192.638V30.768H209.158V35.64H192.638V48.072ZM338.348 13.8H343.556V53H339.356L319.196 23.712V53H313.988V13.8H318.188L338.348 43.032V13.8ZM377.309 49.976C374.583 52.4773 371.055 53.728 366.725 53.728C362.394 53.728 358.847 52.4773 356.085 49.976C353.359 47.4373 351.997 44.0587 351.997 39.84V13.8H357.205V39.616C357.205 42.3787 358.026 44.5813 359.669 46.224C361.311 47.8293 363.663 48.632 366.725 48.632C369.786 48.632 372.138 47.8293 373.781 46.224C375.423 44.5813 376.245 42.3787 376.245 39.616V13.8H381.397V39.84C381.397 44.0587 380.034 47.4373 377.309 49.976ZM413.16 53L404.368 37.992H395.128V53H389.92V13.8H405.6C408.96 13.8 411.835 14.9947 414.224 17.384C416.613 19.736 417.808 22.592 417.808 25.952C417.808 28.4907 417.043 30.8053 415.512 32.896C414.019 34.9867 412.077 36.4613 409.688 37.32L418.928 53H413.16ZM395.128 18.672V33.288H405.6C407.541 33.288 409.184 32.5787 410.528 31.16C411.909 29.704 412.6 27.968 412.6 25.952C412.6 23.936 411.909 22.2187 410.528 20.8C409.184 19.3813 407.541 18.672 405.6 18.672H395.128ZM448.982 13.8V18.728H437.39V53H432.238V18.728H420.702V13.8H448.982ZM479.504 49.976C476.779 52.4773 473.251 53.728 468.92 53.728C464.59 53.728 461.043 52.4773 458.28 49.976C455.555 47.4373 454.192 44.0587 454.192 39.84V13.8H459.4V39.616C459.4 42.3787 460.222 44.5813 461.864 46.224C463.507 47.8293 465.859 48.632 468.92 48.632C471.982 48.632 474.334 47.8293 475.976 46.224C477.619 44.5813 478.44 42.3787 478.44 39.616V13.8H483.592V39.84C483.592 44.0587 482.23 47.4373 479.504 49.976ZM515.356 53L506.564 37.992H497.324V53H492.116V13.8H507.796C511.156 13.8 514.03 14.9947 516.42 17.384C518.809 19.736 520.004 22.592 520.004 25.952C520.004 28.4907 519.238 30.8053 517.708 32.896C516.214 34.9867 514.273 36.4613 511.884 37.32L521.124 53H515.356ZM497.324 18.672V33.288H507.796C509.737 33.288 511.38 32.5787 512.724 31.16C514.105 29.704 514.796 27.968 514.796 25.952C514.796 23.936 514.105 22.2187 512.724 20.8C511.38 19.3813 509.737 18.672 507.796 18.672H497.324ZM532.118 48.072H550.318V53H526.91V13.8H550.038V18.728H532.118V30.768H548.638V35.64H532.118V48.072Z" fill="white"/>
<path d="M242.493 53L228.493 13.8H234.093L245.461 46.504L256.773 13.8H262.429L248.373 53H242.493ZM279.148 53.728C275.49 53.728 272.354 52.8693 269.74 51.152C267.164 49.4347 265.354 47.0827 264.308 44.096L268.788 41.52C270.319 46.2613 273.81 48.632 279.26 48.632C281.948 48.632 284.002 48.0907 285.42 47.008C286.839 45.888 287.548 44.4133 287.548 42.584C287.548 40.7173 286.839 39.3173 285.42 38.384C284.002 37.4507 281.631 36.4613 278.308 35.416C276.666 34.8933 275.415 34.4827 274.556 34.184C273.698 33.848 272.615 33.3627 271.308 32.728C270.039 32.056 269.087 31.384 268.452 30.712C267.818 30.0027 267.239 29.088 266.716 27.968C266.231 26.848 265.988 25.5787 265.988 24.16C265.988 20.7627 267.183 18.0747 269.572 16.096C271.962 14.08 274.874 13.072 278.308 13.072C281.407 13.072 284.095 13.856 286.372 15.424C288.687 16.992 290.423 19.064 291.58 21.64L287.212 24.16C285.532 20.128 282.564 18.112 278.308 18.112C276.18 18.112 274.463 18.6347 273.156 19.68C271.85 20.7253 271.196 22.144 271.196 23.936C271.196 25.6533 271.812 26.96 273.044 27.856C274.276 28.752 276.404 29.6853 279.428 30.656C280.511 30.992 281.276 31.2347 281.724 31.384C282.172 31.5333 282.863 31.7947 283.796 32.168C284.767 32.5413 285.476 32.84 285.924 33.064C286.372 33.288 286.97 33.6053 287.716 34.016C288.5 34.4267 289.079 34.8187 289.452 35.192C289.826 35.5653 290.255 36.032 290.74 36.592C291.263 37.1147 291.636 37.656 291.86 38.216C292.084 38.776 292.271 39.4293 292.42 40.176C292.607 40.8853 292.7 41.6507 292.7 42.472C292.7 45.9067 291.45 48.6507 288.948 50.704C286.447 52.72 283.18 53.728 279.148 53.728Z" fill="#0B0B0B"/>
</svg>
